<svg preserveAspectRatio="xMidYMid meet" data-bbox="51.046 34.5 97.978 131.1" viewBox="51.046 34.5 97.978 131.1" height="200" width="200" xmlns="http://www.w3.org/2000/svg" data-type="color" role="presentation" aria-hidden="true" aria-label="">
    <g>
        <path d="m145.6 90.2-14.8-28.5c0-.1.1-.3.1-.4l-.3-13.7c-.2-7.2-6.2-13.1-13.4-13.1h-35c-3.6 0-7.1 1.4-9.6 4s-3.9 6.1-3.8 9.7l.3 13.2v.2L54.4 90.2c-6 11.6-3.8 25.8 5.4 35.1l40.2 40.3 40.2-40.3c9.3-9.3 11.5-23.5 5.4-35.1zM78.5 44.3c1-1 2.3-1.6 3.7-1.6h35c2.8 0 5.1 2.3 5.2 5.1l.2 7.1H77.1l-.1-6.8c0-1.5.5-2.8 1.5-3.8zm21.5 65.9c-6.3 0-11.5-5.1-11.5-11.5 0-6.3 5.1-11.5 11.5-11.5s11.5 5.1 11.5 11.5-5.2 11.5-11.5 11.5zm34.4 9.2-30.3 30.3V118c8.9-1.9 15.6-9.8 15.6-19.3 0-10.9-8.8-19.7-19.7-19.7s-19.7 8.8-19.7 19.7c0 9.5 6.7 17.4 15.6 19.3v31.8l-30.3-30.3c-6.7-6.8-8.3-17-3.9-25.5l14.7-28.4h47.2L138.3 94c4.4 8.4 2.9 18.7-3.9 25.4z" fill="#000001" data-color="1"></path>
    </g>
</svg>