<svg preserveAspectRatio="xMidYMid meet" data-bbox="0 0.668 100.001 39.526" xmlns="http://www.w3.org/2000/svg" viewBox="0 0.668 100.001 39.526" height="41" width="100" data-type="color" role="presentation" aria-hidden="true" aria-label="">
    <g>
        <path fill="#BBBDC8" d="M19.93 22.322q0 .54-.232.785-.231.247-.708.247-.432 0-.817-.262a7 7 0 0 1-.754-.6 7 7 0 0 0-.693-.586q-.323-.261-.632-.262-.338 0-.77.262-.431.247-1.062.586-.616.322-1.51.585-.878.261-2.14.262-2.48 0-4.451-.801-1.956-.801-3.327-2.28-1.37-1.493-2.11-3.557Q0 14.622 0 12.096 0 9.63.832 7.552a11 11 0 0 1 2.325-3.634A10.5 10.5 0 0 1 6.653 1.53Q8.67.668 11.043.668q1.556 0 2.525.293.986.277 1.556.554.585.277.94.277.416 0 .692-.246.277-.262.555-.508.293-.262.708-.262a.67.67 0 0 1 .493.2q.2.185.34.647l1.555 5.59q.107.385-.093.678-.184.293-.57.385a1.13 1.13 0 0 1-.739-.061q-.324-.155-.508-.57-.832-1.956-1.895-3.065-1.062-1.125-2.264-1.586a6.9 6.9 0 0 0-2.494-.462q-1.787 0-3.111 1.031Q7.408 4.595 6.669 6.52q-.724 1.91-.724 4.56 0 3.186.832 5.359.847 2.172 2.294 3.28a5.32 5.32 0 0 0 3.296 1.109q.54 0 .97-.123.432-.139.724-.37a1.65 1.65 0 0 0 .447-.585q.17-.338.17-.755v-3.85q0-.323-.17-.493t-.662-.292l-.894-.2q-.4-.108-.616-.309a.66.66 0 0 1-.215-.508q0-.354.246-.554.262-.216.786-.216h7.654q.525 0 .77.216a.64.64 0 0 1 .262.539.68.68 0 0 1-.17.477q-.154.184-.508.324l-.493.154q-.368.123-.554.308-.185.185-.185.554zm10.644.247a5.4 5.4 0 0 0 1.708-1.183q.187.665.833 1.137.925.66 2.464.661 1.248 0 2.08-.446.831-.462 1.247-1.094.416-.646.416-1.216a.74.74 0 0 0-.093-.385q-.092-.154-.292-.154a.35.35 0 0 0-.231.077 1 1 0 0 0-.185.17q-.123.168-.293.323-.17.154-.462.154-.307 0-.477-.2-.17-.201-.17-.57v-7.701q0-2.018-1.478-3.173-1.463-1.17-4.466-1.17-2.496 0-4.174.631-1.664.631-2.51 1.602-.848.955-.848 1.925 0 .924.57 1.448.585.508 1.725.508 1.34 0 2.08-.616.754-.615.754-1.694v-1.525q0-.447.385-.754.4-.308 1.063-.308.754 0 1.186.477.43.477.43 1.31v4.617a7.8 7.8 0 0 0-1.987-.229q-3.28 0-5.05 1.186-1.772 1.185-1.772 3.173 0 1.587 1.263 2.618 1.263 1.017 3.327 1.016a7.2 7.2 0 0 0 2.957-.615m.909-1.956q.189-.095.354-.209v-3.808a4 4 0 0 0-.354-.11 3.2 3.2 0 0 0-.909-.124q-1.001 0-1.586.6-.57.6-.57 1.695 0 1.093.523 1.678.524.57 1.356.57.616 0 1.186-.292m15.333-10.07v-1.65q0-.48-.277-.771-.277-.308-.817-.308-.354 0-.739.108-.385.091-1.001.339l-3.357 1.216q-.447.154-.617.34a.64.64 0 0 0-.154.446q0 .246.124.4.138.155.4.231l.616.077q.247.047.354.231.124.17.124.585v8.363q0 .509-.108.74a.62.62 0 0 1-.354.308l-.509.154a1 1 0 0 0-.43.308.64.64 0 0 0-.14.415q0 .324.216.524.23.185.709.185h6.437q.924 0 .924-.755 0-.446-.462-.662l-.462-.17a.76.76 0 0 1-.37-.323q-.107-.23-.107-.739V12.01l.077-.069q.615-.539 1.232-.8a3.2 3.2 0 0 1 1.232-.262q.956 0 1.479.585t.523 1.756v6.884q0 .524-.108.755a.67.67 0 0 1-.369.339l-.462.17q-.463.215-.462.661 0 .755.924.755h6.253q.939 0 .939-.755 0-.446-.462-.662l-.431-.17a.7.7 0 0 1-.37-.307q-.107-.232-.108-.755v-7.67q0-.232-.014-.456l.076-.068q.57-.507 1.125-.785a2.4 2.4 0 0 1 1.078-.277q.892 0 1.355.6.462.585.585 1.74l.708 6.87q.046.54-.092.77a.73.73 0 0 1-.4.339l-.463.17q-.446.215-.446.661 0 .755.924.755h6.484q.478 0 .693-.185a.68.68 0 0 0 .215-.524.63.63 0 0 0-.138-.415 1 1 0 0 0-.432-.308l-.446-.14a.6.6 0 0 1-.339-.338q-.092-.23-.138-.754l-.817-7.655q-.215-2.14-1.293-3.404-1.08-1.278-2.973-1.278-1.247 0-2.649.786-1.221.684-2.841 2.153a4.15 4.15 0 0 0-.947-1.66q-1.17-1.28-3.127-1.279-1.294 0-2.788.755-1.212.618-2.787 2.004m29.872 12.026a5.4 5.4 0 0 0 1.708-1.183q.188.665.833 1.137.924.66 2.465.661 1.247 0 2.079-.446.831-.462 1.247-1.094.416-.646.416-1.216a.74.74 0 0 0-.093-.385q-.091-.154-.292-.154a.35.35 0 0 0-.231.077 1 1 0 0 0-.185.17q-.123.168-.293.323-.169.154-.462.154-.308 0-.477-.2-.17-.201-.17-.57v-7.701q0-2.018-1.478-3.173Q80.292 7.8 77.29 7.8q-2.496 0-4.174.631-1.664.631-2.51 1.602-.847.955-.847 1.925 0 .924.57 1.448.585.508 1.724.508 1.34 0 2.08-.616.754-.615.754-1.694v-1.525q0-.447.385-.754.4-.308 1.063-.308.754 0 1.186.477.43.477.431 1.31v4.617a7.8 7.8 0 0 0-1.987-.229q-3.28 0-5.051 1.186t-1.771 3.173q0 1.587 1.262 2.618 1.264 1.017 3.327 1.016a7.2 7.2 0 0 0 2.957-.615m.909-1.956q.189-.095.354-.209v-3.809a4 4 0 0 0-.354-.11 3.2 3.2 0 0 0-.91-.123q-1 0-1.585.6-.57.6-.57 1.695 0 1.093.523 1.678.525.57 1.356.57.615 0 1.186-.292m15.35-6.223v5.73q0 .462.153.677.155.2.632.278l1.263.23q.386.078.554.262.185.17.185.493a.66.66 0 0 1-.246.54q-.231.183-.678.184h-7.839q-.478 0-.693-.185a.68.68 0 0 1-.216-.524q0-.247.123-.43.14-.185.447-.293l.493-.154a.62.62 0 0 0 .354-.308q.108-.231.108-.74v-8.332q0-.415-.124-.585a.49.49 0 0 0-.353-.231l-.6-.077q-.28-.076-.401-.231a.66.66 0 0 1-.124-.4q0-.278.154-.447.17-.184.6-.339l3.281-1.17q.847-.324 1.217-.416a2.8 2.8 0 0 1 .6-.093q.355 0 .54.247.185.246.261.831l.204 2.316a6 6 0 0 1 .166-.452q.631-1.51 1.648-2.249 1.032-.739 2.203-.739 1.524 0 2.325.893.816.894.816 2.619 0 1.678-.693 2.48-.678.8-1.755.8-1.095 0-1.649-.57-.553-.585-.57-1.602v-.6q-.014-.432-.2-.647-.185-.231-.584-.231-.432 0-.802.354-.353.354-.585 1.124-.216.77-.215 1.987M23.964 39.577a5.4 5.4 0 0 0 1.708-1.183q.186.666.833 1.136.924.663 2.464.663 1.248 0 2.08-.447.831-.461 1.247-1.094.415-.647.415-1.216a.74.74 0 0 0-.092-.385q-.093-.154-.293-.154a.35.35 0 0 0-.23.077 1 1 0 0 0-.185.169q-.124.17-.293.324-.17.153-.462.153-.308 0-.477-.2-.17-.2-.17-.57v-7.7q0-2.018-1.478-3.173-1.464-1.17-4.467-1.17-2.494 0-4.174.632-1.662.63-2.51 1.6-.847.957-.847 1.926 0 .924.57 1.448.585.508 1.725.508 1.34 0 2.079-.616.755-.615.755-1.694v-1.525q0-.447.385-.754.4-.309 1.062-.309.755 0 1.186.478.431.477.431 1.309v4.618a7.8 7.8 0 0 0-1.987-.229q-3.28 0-5.05 1.186-1.773 1.187-1.772 3.173 0 1.586 1.263 2.618 1.262 1.016 3.326 1.017a7.2 7.2 0 0 0 2.958-.616m.908-1.957q.189-.094.354-.208v-3.809a4 4 0 0 0-.354-.11 3.2 3.2 0 0 0-.908-.123q-1.002 0-1.587.6-.57.6-.57 1.695 0 1.093.524 1.678.524.57 1.355.57.616 0 1.186-.293m15.334-10.065v-1.653q0-.477-.278-.77-.276-.309-.816-.308-.354 0-.739.107-.385.108-1.001.34l-3.358 1.216q-.43.154-.6.324-.154.168-.154.461 0 .247.123.401t.4.23l.601.078q.246.046.354.23.123.171.123.57v8.363q0 .524-.107.755a.62.62 0 0 1-.354.308l-.509.154a1 1 0 0 0-.431.308.64.64 0 0 0-.139.416q0 .323.216.524.23.185.709.185h6.437q.924 0 .924-.755 0-.447-.462-.662l-.462-.17a.76.76 0 0 1-.37-.323q-.107-.23-.107-.74V29.02l.077-.069q.6-.508 1.186-.785.6-.277 1.155-.277.893 0 1.324.585.447.57.57 1.709l.724 6.946q.046.508-.092.74a.74.74 0 0 1-.386.338l-.477.17q-.462.215-.462.662 0 .755.924.755h6.515q.477 0 .693-.185a.68.68 0 0 0 .215-.524.64.64 0 0 0-.138-.416q-.123-.184-.416-.308l-.477-.154a.56.56 0 0 1-.34-.323q-.091-.231-.154-.755l-.8-7.685q-.216-2.126-1.279-3.389t-2.941-1.262q-1.248 0-2.695.785-1.173.643-2.726 1.977m26.933 1.674q0 1.016-.74 1.709-.723.693-1.94.693-1.2 0-1.818-.647-.615-.662-.616-1.71v-.57q0-1.03-.523-1.617-.509-.6-1.37-.6-.755 0-1.372.508-.6.493-.97 1.463-.354.97-.354 2.388 0 1.879.616 3.157.63 1.278 1.725 1.925 1.094.647 2.48.647 1.185 0 2.079-.4.894-.402 1.524-1.279.324-.324.493-.431a.73.73 0 0 1 .37-.108q.246 0 .354.247a1.2 1.2 0 0 1 .123.569q-.061 1.37-.94 2.51-.861 1.14-2.371 1.833-1.509.678-3.465.678-2.25 0-4.004-.909a6.94 6.94 0 0 1-2.773-2.556q-1.016-1.649-1.016-3.866 0-2.31 1.001-4.128a7.4 7.4 0 0 1 2.834-2.88q1.833-1.062 4.297-1.062 1.986 0 3.404.6 1.431.585 2.202 1.602.77 1 .77 2.234m15.502 2.818q.478-.477.478-1.34 0-1.724-.786-3.05-.77-1.339-2.294-2.094-1.51-.77-3.697-.77-2.51 0-4.312 1.016a6.86 6.86 0 0 0-2.772 2.818q-.954 1.803-.955 4.22 0 2.204 1.017 3.851a7.13 7.13 0 0 0 2.803 2.572q1.77.924 4.035.924 2.017 0 3.557-.693 1.556-.709 2.433-1.864.895-1.17.94-2.54 0-.34-.123-.57-.123-.247-.37-.247a.7.7 0 0 0-.354.108q-.185.108-.508.431a3.8 3.8 0 0 1-1.57 1.37q-.941.432-2.173.432-2.248 0-3.573-1.402-.92-.984-1.2-2.695h8.038q.909 0 1.386-.477m-5.59-.8h-3.953a13 13 0 0 1-.005-.37q0-1.449.323-2.419.34-.986.909-1.478.584-.493 1.325-.493.97 0 1.57.985.6.971.6 3.065 0 .71-.77.71" clip-rule="evenodd" fill-rule="evenodd" data-color="1"></path>
    </g>
</svg>