<svg preserveAspectRatio="xMidYMid meet" data-bbox="0.333 0.496 100 20.71" xmlns="http://www.w3.org/2000/svg" viewBox="0.333 0.496 100 20.71" height="22" width="101" data-type="color" role="presentation" aria-hidden="true" aria-label="">
    <g>
        <path fill="#BBBDC8" d="M8.159 10.366V8.513l6.613-.01v2.167c0 2.335-.985 4.715-3.14 5.548a9.3 9.3 0 0 1-3.324.614q-2.299 0-4.185-.992a7 7 0 0 1-1.171-.787 6.5 6.5 0 0 1-1.463-1.738l-.118-.21-.08-.152Q.333 11.067.333 8.739q0-2.305.947-4.3.96-2.003 2.748-2.973 1.79-.97 4.12-.97 1.694 0 3.057.56.423.17.79.38.235.136.447.289.283.204.526.44.21.205.387.432.78.991 1.182 2.586l-1.863.518a9 9 0 0 0-.106-.341l-.086-.244q-.293-.8-.68-1.312a3 3 0 0 0-.326-.363l-.136-.122-.13-.103-.099-.073a5 5 0 0 0-2.022-.788 6 6 0 0 0-.93-.07q-1.416 0-2.449.442-1.033.43-1.671 1.142-.63.711-.98 1.562-.596 1.465-.597 3.18 0 2.11.714 3.533.348.681.843 1.194.539.56 1.256.918a6.4 6.4 0 0 0 3.26.681 6.9 6.9 0 0 0 2.277-.508c1.32-.545 1.937-1.947 1.937-3.389v-.674zm13.665 5.645a5.5 5.5 0 0 1-1.764.69q-.587.12-1.223.12-1.865 0-2.864-.917-1.001-.926-1.001-2.36l.004-.187.014-.19.022-.165a3 3 0 0 1 .22-.758l.057-.129.054-.1q.106-.195.23-.368.323-.45.76-.753.619-.42 1.385-.636.253-.068.62-.133.454-.08 1.084-.158a31 31 0 0 0 1.673-.244q1.092-.192 1.746-.424l.01-.507q0-1.184-.543-1.67-.412-.37-1.05-.53a4.6 4.6 0 0 0-1.133-.127q-.79 0-1.34.166a2.1 2.1 0 0 0-.662.319 2 2 0 0 0-.511.583 4.1 4.1 0 0 0-.437 1.109l-1.873-.259q.255-1.218.841-1.961.293-.378.717-.667l.112-.072.146-.088.207-.11.19-.088a5 5 0 0 1 .32-.128q1.108-.41 2.566-.41.916 0 1.614.138.147.029.285.064.242.063.455.143.324.124.59.272.469.263.74.601.427.517.598 1.315.095.495.095 1.788v2.587q0 2.704.117 3.426.127.71.49 1.369h-2.003a4 4 0 0 1-.109-.247l-.049-.132a3 3 0 0 1-.058-.178l-.05-.182A5 5 0 0 1 23 15.15q-.352.304-.699.55-.239.17-.476.31m1.017-5.193q-1.045.432-3.132.733-1.181.172-1.672.388a1.66 1.66 0 0 0-.755.636 1.64 1.64 0 0 0-.267.916q0 .776.575 1.293.189.166.432.279.217.1.476.158.357.08.796.08 1.107 0 1.97-.485.863-.496 1.268-1.347.118-.25.192-.593.051-.239.078-.521.024-.211.032-.448l.004-.18.003-.197zm2.188 2.328 1.896-.302q.086.617.332 1.08a2.4 2.4 0 0 0 .236.363l.086.1q.106.12.23.224.735.614 2.045.614 1.32 0 1.959-.538.276-.24.433-.513.205-.355.206-.77 0-.657-.564-1.034l-.101-.059-.13-.062-.203-.083a15 15 0 0 0-1.526-.453q-2.108-.54-2.928-.927-.81-.4-1.235-1.088a2.97 2.97 0 0 1-.416-1.541q0-.764.34-1.412.353-.656.95-1.088.446-.335 1.213-.56a5.7 5.7 0 0 1 1.661-.238q1.331 0 2.332.388 1.011.388 1.49 1.056.48.659.66 1.767l-1.873.26q-.128-.885-.745-1.38-.607-.495-1.726-.496-1.32 0-1.885.442-.564.442-.564 1.034 0 .377.234.68a1.4 1.4 0 0 0 .383.34l.06.034.115.062q.083.042.178.08.286.108 1.693.496 2.033.55 2.832.906.808.345 1.267 1.012.457.669.457 1.66 0 .97-.563 1.832-.554.85-1.61 1.325-1.051.463-2.383.463-2.205 0-3.365-.926a3.7 3.7 0 0 1-.921-1.11q-.385-.701-.55-1.638m9.71 7.801V5.118h1.746v1.487q.336-.475.72-.82.195-.177.407-.319l.14-.09.129-.075q.776-.441 1.883-.442.744 0 1.397.199a4.2 4.2 0 0 1 1.16.556q1.107.755 1.67 2.133.566 1.37.566 3.007 0 1.755-.628 3.168-.619 1.4-1.812 2.155-1.18.743-2.49.743a3.6 3.6 0 0 1-1.726-.41 3.95 3.95 0 0 1-1.245-1.034v5.571zm1.736-10.042q0 2.208.884 3.265.883 1.056 2.14 1.055 1.278 0 2.183-1.088.915-1.1.916-3.394-.001-2.188-.895-3.276-.885-1.088-2.12-1.088-.758 0-1.412.448-.4.273-.76.716-.937 1.152-.937 3.362m15.82 4.245q-1.066.916-2.056 1.293a5.8 5.8 0 0 1-2.109.377q-1.863 0-2.864-.916-1-.926-1.001-2.36 0-.84.373-1.53.384-.7.99-1.12a4.7 4.7 0 0 1 1.385-.636q.564-.151 1.704-.29 2.32-.281 3.417-.67l.01-.506q0-.144-.007-.28a4 4 0 0 0-.02-.214q-.093-.8-.514-1.176-.735-.657-2.184-.657-1.352 0-2.001.485-.302.225-.53.613-.255.435-.419 1.079l-1.874-.259q.256-1.218.84-1.961.588-.754 1.694-1.153.63-.233 1.374-.333a9 9 0 0 1 1.193-.077q1.448 0 2.353.345t1.331.873q.425.517.596 1.315.096.495.096 1.788v2.587q0 2.704.117 3.426.129.71.49 1.369h-2.002a4.1 4.1 0 0 1-.382-1.412m-.161-4.332q-1.044.432-3.13.733-1.182.172-1.672.388a1.65 1.65 0 0 0-.755.636q-.107.161-.17.337a1.7 1.7 0 0 0-.098.579q0 .776.576 1.293.322.284.808.413.393.104.896.104.325 0 .628-.042a4 4 0 0 0 .418-.08q.491-.12.924-.363.862-.496 1.266-1.347.309-.657.309-1.94zm2.936 5.744V5.118h1.724v1.735q.39-.72.745-1.15.245-.297.47-.456a2.14 2.14 0 0 1 1.235-.388c1.359 0 2.245 1.312 2.756 2.586l1.724 4.3q.457 1.26.82 2.65.33-1.336.787-2.607l2.418-6.67h1.917l-4.303 11.638q-.691 1.885-1.074 2.597-.512.959-1.172 1.4a2.5 2.5 0 0 1-.804.361q-.094.024-.193.042-.276.05-.58.05-.554 0-1.235-.237l-.212-1.821q.628.172 1.096.172.637 0 1.023-.215a1.75 1.75 0 0 0 .627-.604q.183-.29.587-1.444.053-.16.17-.474l-3.314-8.73c-.196-.597-.665-.99-1.134-.99q-.627 0-1.129.389-.499.377-.714 1.056a7.7 7.7 0 0 0-.319 2.262v5.992zm20.619-.645a9 9 0 0 0 1.022-.767q.047.43.152.8.093.33.232.612h2.002a4.5 4.5 0 0 1-.49-1.369 4 4 0 0 1-.034-.268l-.026-.335-.015-.293-.021-.658a72 72 0 0 1-.02-1.872V9.18q0-.57-.02-.985a6 6 0 0 0-.078-.803 3.6 3.6 0 0 0-.24-.74 2.6 2.6 0 0 0-.355-.575q-.426-.528-1.331-.873t-2.353-.345q-1.46 0-2.567.41-1.107.399-1.693 1.153-.585.744-.841 1.961l1.874.259.072-.259a5 5 0 0 1 .19-.514 3 3 0 0 1 .114-.23q.242-.444.571-.69.65-.484 2.002-.484 1.448 0 2.183.657.26.232.396.625.147.428.147 1.045l-.01.507q-1.096.388-3.418.668-1.14.14-1.704.29-.484.138-.908.354a5 5 0 0 0-.476.283 3.2 3.2 0 0 0-1.363 2.65q0 1.434 1 2.36 1.002.916 2.865.916.703 0 1.348-.146a5.5 5.5 0 0 0 1.793-.756m-2.268-4.366q.977-.141 1.726-.311a9 9 0 0 0 1.405-.422v.712q0 1.28-.309 1.94a3.04 3.04 0 0 1-1.266 1.346q-.865.485-1.971.485-.676 0-1.155-.188l-.138-.06-.077-.04-.095-.054a2 2 0 0 1-.238-.175l-.097-.094a1.66 1.66 0 0 1-.479-1.2q.001-.505.266-.915.267-.42.757-.636t1.671-.388m6.088-6.433v11.444h1.917v-6.25q0-2.198.885-2.985.893-.786 2.117-.787.289 0 .546.05.432.084.785.306.577.345.799.937.09.232.143.558.043.256.063.573.018.293.018.637v6.96H88.7V9.526q0-.434-.01-.784l-.017-.379-.025-.326-.012-.12-.021-.152-.022-.124a3.8 3.8 0 0 0-.596-1.434q-.426-.603-1.287-.97a4.4 4.4 0 0 0-1.23-.337 5 5 0 0 0-.645-.04q-2.354.001-3.6 1.886V5.118zm9.444.24v1.364h1.348V5.357zm4.964-2.023 1.33-.243q-.243-.831-.793-1.233-.547-.408-1.478-.408-1.136 0-1.804.714-.665.708-.666 1.985 0 1.262.662 1.976.666.714 1.784.714.6 0 1.05-.175.29-.112.52-.296.505-.406.728-1.15.067.192.157.363.331.617.965.937.637.32 1.338.32 1.132 0 1.876-.766.747-.772.747-1.942 0-1.16-.738-1.918-.739-.762-1.894-.762-.749 0-1.358.335a2.27 2.27 0 0 0-.936.971q-.15.29-.233.587a2.7 2.7 0 0 0-.098.729q0 .477.096.878l-1.183-.204q-.102.54-.346.762-.244.219-.63.219-.199 0-.366-.057a1 1 0 0 1-.453-.322 1.1 1.1 0 0 1-.166-.306l-.02-.059-.021-.067a3 3 0 0 1-.066-.345 4 4 0 0 1-.026-.378l-.003-.14q-.001-.276.034-.5.014-.096.035-.182.044-.183.115-.321a.8.8 0 0 1 .114-.173q.301-.354.806-.354.202 0 .365.059a.8.8 0 0 1 .248.145q.241.204.308.607m2.54.81q0 .767.36 1.175t.888.408.883-.408q.36-.408.36-1.184 0-.135-.011-.26a2 2 0 0 0-.046-.29 1.32 1.32 0 0 0-.52-.815 1.14 1.14 0 0 0-.665-.208q-.53 0-.888.408a1.34 1.34 0 0 0-.281.531 2.4 2.4 0 0 0-.08.643" clip-rule="evenodd" fill-rule="evenodd" data-color="1"></path>
    </g>
</svg>