<svg preserveAspectRatio="xMidYMid meet" data-bbox="0.667 0.615 99.999 25.771" xmlns="http://www.w3.org/2000/svg" viewBox="0.667 0.615 99.999 25.771" height="27" width="101" data-type="color" role="presentation" aria-hidden="true" aria-label="">
    <g>
        <path fill="#BBBDC8" d="M4.102.615H.667v25.104h3.435v-11.74h13.056v11.74h3.435V.615h-3.435v10.373H4.102zm34.107 12.902q.085-1.845-.547-3.23-.633-1.452-2.273-2.358a7.2 7.2 0 0 0-3.589-.923q-3.862 0-6.836 2.752-2.973 2.75-3.913 7.16-.957 4.478.889 6.972 1.845 2.48 5.263 2.479 1.401 0 2.58-.274a9.2 9.2 0 0 0 3.863-1.845q1.008-.787 1.93-2.017.94-1.248 1.283-2.256h-3.025a7 7 0 0 1-1.624 2.136q-1.76 1.59-4.17 1.59-2.58 0-3.469-1.675-.87-1.692-.359-4.478h13.416q.598-2.768.58-4.033m-3.418-1.606q.427 1.196.188 3.196H24.81q.597-2.36 2.358-3.88 1.76-1.538 3.88-1.538 2.955 0 3.742 2.222M38.322.615h3.076v6.801h2.636L48.92 22.32l5.11-14.903h3.366L50.493 25.72h-3.28L41.397 9.955V25.72h-3.076zm33.081 10.897a6 6 0 0 0-.4-1.225Q70.37 8.835 68.73 7.93a7.2 7.2 0 0 0-3.589-.923q-3.862 0-6.836 2.752-2.973 2.75-3.913 7.16-.957 4.478.888 6.972 1.846 2.48 5.264 2.479 1.403 0 2.58-.274a9.2 9.2 0 0 0 3.863-1.845q1.008-.787 1.93-2.017.941-1.248 1.283-2.256h-3.025a7 7 0 0 1-1.624 2.136q-1.76 1.59-4.17 1.59-2.58 0-3.469-1.675-.87-1.692-.358-4.478h13.415q.288-1.338.434-2.325V25.72h3.127v-7.158q.345 3.208 2.14 5.278 2.221 2.547 5.998 2.546 4.53 0 6.682-2.888t2.154-7.314q-.001-4.58-2.444-6.938t-5.982-2.358q-3.947 0-6.289 2.734-1.902 2.222-2.259 5.686V7.502h-3.127zm-3.083 3.595q.24-2-.188-3.196-.786-2.222-3.743-2.222-2.118 0-3.88 1.538-1.759 1.52-2.357 3.88zM74.53.615h-3.127V4.1h3.127zm8.429 23.122q3.059 0 4.186-2.307 1.145-2.325 1.145-5.161 0-2.565-.82-4.17-1.299-2.53-4.477-2.53-2.82 0-4.102 2.154-1.281 2.153-1.281 5.195 0 2.922 1.281 4.87 1.282 1.95 4.067 1.949m11.726-16.32h-2.922v18.302h3.076V15.192q0-1.948 1.248-3.435 1.247-1.504 3.572-1.504.272 0 .495.017.24.018.513.069V7.092a41 41 0 0 0-.701-.069 4 4 0 0 0-.29-.017q-1.83 0-3.23 1.333-1.402 1.316-1.76 2.239z" clip-rule="evenodd" fill-rule="evenodd" data-color="1"></path>
    </g>
</svg>