<svg preserveAspectRatio="xMidYMid meet" data-bbox="0.667 0.084 100 24.833" xmlns="http://www.w3.org/2000/svg" viewBox="0.667 0.084 100 24.833" height="25" width="101" data-type="color" role="presentation" aria-hidden="true" aria-label="">
    <g>
        <path fill="#BBBDC8" d="M43.589 24.36V.084h-5.294v24.278zM36.432 9.355V24.36h-5.294V9.354zm-5.645-5.762q0-.615.234-1.14.234-.556.643-.966T32.6.843q.555-.234 1.17-.234t1.141.234q.555.234.965.643t.644.965q.234.527.234 1.141 0 .615-.234 1.17-.233.527-.644.936a3 3 0 0 1-.965.644 2.8 2.8 0 0 1-1.14.234q-.615 0-1.17-.234a3.1 3.1 0 0 1-.937-.644 3.1 3.1 0 0 1-.643-.936 3 3 0 0 1-.234-1.17M13.39 2.306 6.4 11.403V2.306H.667V24.36H6.4v-9.564l7.459 9.564h7.43l-9.567-11.61L20.47 2.306zM27.489 24.36V13.772h3.013V9.355H27.49V4.851h-5.294v4.504H20.44v4.417h1.755V24.36zm22.877-7.545q0 .73.263 1.375.264.614.703 1.082.467.468 1.081.73.645.265 1.375.264.703 0 1.317-.263a3 3 0 0 0 1.082-.731q.468-.468.73-1.082.293-.615.293-1.317 0-.701-.292-1.316a3.3 3.3 0 0 0-.731-1.112 3 3 0 0 0-1.082-.73 3.3 3.3 0 0 0-1.317-.264q-.73 0-1.375.263-.614.264-1.081.731a3.7 3.7 0 0 0-.703 1.083q-.263.585-.263 1.287m6.67-7.46h5.322v15.006h-5.323v-1.667q-1.697 2.135-4.592 2.135-1.639 0-3.013-.585a7.5 7.5 0 0 1-2.399-1.696 8 8 0 0 1-1.608-2.545q-.555-1.463-.556-3.188 0-1.61.556-3.042a7.8 7.8 0 0 1 1.55-2.545 7.1 7.1 0 0 1 2.37-1.697q1.374-.643 3.041-.643 2.808 0 4.651 1.96zm12.464.001h-5.294v15.005H69.5v-6.435q0-2.105.906-3.188.937-1.111 2.78-1.111 1.228 0 2.281.526v-5.06a3.3 3.3 0 0 0-.585-.059h-.439q-1.638 0-2.866.732-1.23.702-2.077 2.047zm11.87-.002V24.36h-5.294V9.354zm-5.645-5.762q0-.615.234-1.14.234-.556.644-.966a3.1 3.1 0 0 1 .935-.643q.556-.234 1.17-.234.615 0 1.142.234.555.234.965.643t.643.965q.234.527.234 1.141 0 .615-.234 1.17-.234.527-.643.936a3 3 0 0 1-.965.644 2.8 2.8 0 0 1-1.142.234q-.614 0-1.17-.234a3.1 3.1 0 0 1-.935-.644 3.1 3.1 0 0 1-.644-.936 3 3 0 0 1-.234-1.17M88.498 18.19a3.7 3.7 0 0 1-.263-1.405q0-.702.263-1.316.293-.614.731-1.082a3.4 3.4 0 0 1 1.083-.732 3.5 3.5 0 0 1 1.345-.263q.702 0 1.316.263.644.264 1.083.732.468.468.73 1.111.294.614.293 1.317 0 .73-.292 1.375-.264.614-.731 1.081a3 3 0 0 1-1.083.732q-.614.263-1.316.263t-1.345-.263q-.614-.264-1.083-.732a4.2 4.2 0 0 1-.73-1.081m-5.177-4.564a7.2 7.2 0 0 0-.673 3.1q0 1.844.673 3.365a7.9 7.9 0 0 0 1.843 2.574q1.2 1.081 2.837 1.667 1.638.585 3.568.585 1.96 0 3.627-.585 1.697-.585 2.897-1.638a7.8 7.8 0 0 0 1.871-2.545q.703-1.491.702-3.276 0-1.785-.672-3.247a7.2 7.2 0 0 0-1.901-2.544q-1.2-1.083-2.867-1.668-1.638-.614-3.57-.614-1.958 0-3.626.614-1.637.614-2.837 1.697a7.5 7.5 0 0 0-1.872 2.515" clip-rule="evenodd" fill-rule="evenodd" data-color="1"></path>
    </g>
</svg>