<svg preserveAspectRatio="xMidYMid meet" data-bbox="0.668 0.609 99.998 31.782" xmlns="http://www.w3.org/2000/svg" viewBox="0.668 0.609 99.998 31.782" height="33" width="101" data-type="color" role="presentation" aria-hidden="true" aria-label="">
    <g>
        <path fill="#BBBDC8" d="M16.475 32.39c-2.14 0-5.94-.689-9.39-2.799C3.986 27.74.668 23.09.668 16.801c0-2.626.698-6.717 4.06-10.722C8.572 1.47 12.895.609 16.563.609c2.751 0 6.332.56 9.782 3.403 3.188 2.712 5.983 6.933 5.983 12.875 0 3.144-1.005 6.417-3.276 9.432-2.663 3.488-6.55 6.072-12.576 6.072m.35-1.636c9.606 0 11.222-9.69 11.222-13.522 0-9.43-6.812-14.986-11.66-14.986q-.095-.001-.253-.01c-.98-.057-3.688-.21-6.646 2.55C6.562 7.544 5.12 11.893 5.12 15.424c0 11.326 7.991 15.331 11.703 15.331M41.552 9.732c-2.489 0-5.153 2.239-5.153 6.675 0 2.325 1.049 4.952 2.227 6.545 1.442 1.852 3.276 2.196 4.76 2.196 2.184 0 3.32-.473 4.804-1.851.087-.086.218-.13.35 0l.436.43c.175.172.218.302 0 .56-1.266 1.421-4.061 3.058-7.03 3.058-2.315 0-4.76-.517-6.77-3.015-1.615-2.11-1.964-3.919-1.964-5.856 0-5.039 3.58-10.12 9.345-10.12 4.541 0 5.939 2.583 5.939 3.488-.044.99-.699 1.507-1.616 1.507-1.004 0-1.747-.56-2.402-1.723-.96-1.765-1.878-1.894-2.926-1.894m10.18 5.641H62.52c.699 0 1.223-.086 1.223-.689 0-1.68-1.398-6.33-6.42-6.33-2.183 0-4.366.387-6.244 2.282-2.315 2.282-2.751 5.168-2.751 6.847 0 3.015.393 4.608 1.921 6.804 1.616 2.326 4.367 3.058 6.856 3.058 5.663 0 8.359-8.888 9.64-13.584.086-.278.166-.586.249-.92l.02-.071.01-.042q.109-.401.2-.725c.137-.44.308-.792.701-1.152.612-.56 1.966-.904 2.839-.904 1.266 0 2.14.388 2.62.947.411.48.502 1.368.575 2.073l.036.339v2.756c-.698.603-2.97 1.636-4.934 2.498-3.45 1.507-4.367 3.23-4.367 5.21 0 2.714 1.572 3.575 2.62 3.575.96 0 1.747 0 2.577-.259 1.965-.646 3.406-1.55 4.323-2.627h.087c.393 1.766 1.528 2.886 3.1 2.886 1.23 0 2.034-.447 2.566-.956v.18c0 .259.088.388.306.388q.102-.001.418-.02c.612-.037 1.81-.109 3.469-.109 1.698 0 2.785.07 3.364.107q.313.02.435.022c.218 0 .306-.129.306-.387v-.733c0-.301-.088-.43-.437-.43h-1.092c-.917 0-1.047-.259-1.047-1.421v-8.914c0-.819.13-1.981 1.003-2.929 1.31-1.378 2.84-1.68 3.538-1.68 1.092 0 2.14 0 3.187.776 1.267.904 1.267 2.153 1.267 3.876v5.684c0 1.12-.044 2.498-.087 3.617-.045.776-.394.99-.873.99h-1.267c-.437 0-.568.087-.568.388v.69c0 .344.087.473.349.473q.126-.002.483-.023c.64-.037 1.823-.106 3.447-.106 1.843 0 3.063.07 3.697.108q.334.02.452.021c.262 0 .349-.172.349-.474v-.689c0-.258-.087-.387-.48-.387h-1.397c-.568 0-.96-.215-.96-.904V13.392c0-1.077-1.093-3.23-2.402-4.091-1.05-.69-2.403-.947-3.713-.947-2.183 0-4.716 1.593-5.982 3.143h-.088l-.306-2.627c-.043-.344-.13-.516-.35-.516-.174 0-.435.129-.784.3v.001l-3.756 2.067c-.219.086-.393.215-.393.43v.216c0 .13.043.258.35.388l.348.172c1.092.517 1.791 1.249 1.791 2.54v10.078c0 .732-.306.86-.873.86h-.958l.095-.171c.262-.431.174-.646.043-.776l-.436-.344c-.175-.13-.262-.043-.437.172-.218.302-.83.646-1.528.646-.786 0-1.31-.775-1.31-3.23v-9.13c0-1.162-.044-2.152-.961-3.057-.612-.56-1.441-1.162-3.494-1.162-1.965 0-3.493.43-5.327 1.507-.726.418-1.09.876-1.305 1.379-.147.282-.365.983-.66 1.927-1.196 3.837-3.641 11.68-7.59 11.68-3.493 0-6.2-3.187-6.2-7.407q0-1.486.13-2.067m6.944-1.292H51.91c.83-3.187 2.663-4.436 4.585-4.436 2.838 0 3.362 2.843 3.362 3.833 0 .388-.349.603-1.179.603m15.275 8.57v-5.297c-.396.293-.963.566-1.59.869-1.866.9-4.262 2.055-4.262 4.73 0 1.593.96 2.368 2.27 2.368 1.267 0 3.582-1.508 3.582-2.67" clip-rule="evenodd" fill-rule="evenodd" data-color="1"></path>
    </g>
</svg>