<svg preserveAspectRatio="xMidYMid meet" data-bbox="0.666 0.684 99.999 23.833" xmlns="http://www.w3.org/2000/svg" viewBox="0.666 0.684 99.999 23.833" height="25" width="101" data-type="color" role="presentation" aria-hidden="true" aria-label="">
    <g>
        <path fill="#BBBDC8" d="M30.99 24.132 41.345.684l10.089 23.448h-2.768l-2.649-6.352h-9.583l-2.708 6.352zm10.296-17.63-3.839 8.963h7.589zm-29.37-.388 1.993-1.276c-1.22-2.226-3.273-3.473-5.803-3.473-3.393 0-6.28 2.286-6.28 5.699 0 2.404 1.161 4.185 5.15 5.847 3.362 1.425 5.237 2.345 5.237 4.927 0 2.434-2.113 4.363-4.613 4.363-2.262 0-4.107-1.662-4.494-4.155l-2.44.683c.744 3.562 3.452 5.788 6.994 5.788 3.958 0 7.053-3.087 7.053-6.916 0-3.324-2.232-4.838-4.672-5.966-.399-.183-.808-.36-1.217-.537-1.574-.68-3.129-1.352-3.932-2.342a2.62 2.62 0 0 1-.565-1.603c0-2.018 1.636-3.473 3.75-3.473 1.696 0 2.856.713 3.838 2.434M22.29 1.752h-3.929v22.38h2.5v-9.795h2.083c2.62 0 4.316-.713 5.447-1.84 1.22-1.217 1.755-2.91 1.755-4.512 0-2.493-1.398-4.63-3.422-5.55-.982-.446-2.321-.683-4.434-.683m-1.429 10.27V4.067c.923 0 1.518 0 2.202.03 3.453.148 4.584 1.514 4.584 3.888 0 3.532-2.798 4.037-5.447 4.037zM68.4 1.752H53.55v2.315h10.684L52.002 24.132h16.07v-2.315H56.14zm2.945 0h2.5v22.38h-2.5zM88.97 24.517c6.576 0 11.695-5.284 11.695-11.546 0-6.323-5.208-11.606-11.695-11.606-6.489 0-11.697 5.283-11.697 11.606s5.238 11.546 11.697 11.546m9.195-11.576c0 5.016-4.106 9.26-9.195 9.26-5.03 0-9.197-4.214-9.197-9.26s4.078-9.26 9.167-9.26c5.267 0 9.225 4.273 9.225 9.26" clip-rule="evenodd" fill-rule="evenodd" data-color="1"></path>
    </g>
</svg>